<svg width="514" height="642" viewBox="0 0 514 642" fill="none" preserveAspectRatio="none" xmlns="http://www.w3.org/2000/svg">
<path d="M303.347 288.367C273.689 305.695 257.699 365.341 269.611 395.835C282.771 429.508 365.059 424.393 374.501 416.182C383.944 407.971 306.751 381.697 317.284 350.713C328.983 316.322 387.726 316.274 386.126 301.589C384.554 287.14 337.63 268.34 303.347 288.367Z" stroke="#F5F5F5" stroke-miterlimit="10"/>
<path d="M294.063 284.13C259.3 299.23 244.216 371.429 259.54 405.442C276.908 443.967 366.308 429.688 379.579 423.591C391.018 418.344 316.757 383.009 325.635 345.569C335.272 304.893 388.253 298.286 384.295 288.849C380.041 278.731 334.855 266.453 294.063 284.13Z" stroke="#F5F5F5" stroke-miterlimit="10"/>
<path d="M284.778 279.902C244.966 292.728 230.761 377.507 249.47 415.041C271.082 458.454 366.845 434.86 384.657 431.01C397.604 428.178 326.829 384.368 333.978 340.407C341.607 293.521 389.974 279.77 382.465 276.174C376.861 269.803 332.23 264.603 284.778 279.902Z" stroke="#F5F5F5" stroke-miterlimit="10"/>
<path d="M275.492 275.636C230.658 286.282 217.332 383.547 239.425 424.62C265.319 472.828 368.647 446.846 389.76 438.399C402.985 433.105 336.963 385.708 342.346 335.254C348.015 282.158 391.12 261.508 380.66 263.461C373.012 261.13 329.593 262.81 275.492 275.636Z" stroke="#F5F5F5" stroke-miterlimit="10"/>
<path d="M266.207 271.427C216.37 279.921 203.922 389.625 229.326 434.256C259.512 487.296 368.046 452.546 394.81 445.836C409.828 442.061 347.072 387.114 350.669 330.139C354.368 270.832 393.21 245.662 378.802 250.786C369.572 254.061 326.976 261.064 266.207 271.427Z" stroke="#F5F5F5" stroke-miterlimit="10"/>
<path d="M256.932 267.189C202.082 273.578 190.522 395.684 219.256 443.854C253.76 501.717 367.612 448.139 399.897 453.292C416.626 455.944 357.245 388.53 359.02 325.024C360.87 259.526 394.625 226.956 376.971 238.13C365.984 245.039 324.368 259.346 256.932 267.189Z" stroke="#F5F5F5" stroke-miterlimit="10"/>
<path d="M247.648 262.961C187.796 267.246 177.133 401.696 209.177 453.462C248.018 516.129 368.011 452.027 404.966 460.663C423.046 464.891 367.41 389.88 367.354 319.842C367.299 248.116 395.746 208.288 375.132 225.39C362.203 236.12 321.762 257.648 247.648 262.961Z" stroke="#F5F5F5" stroke-miterlimit="10"/>
<path d="M238.362 258.724C173.506 260.932 163.768 407.764 199.104 463.07C242.255 530.54 368.509 455.774 410.041 468.081C429.518 473.847 377.599 391.239 375.704 314.699C373.771 236.781 396.789 189.771 373.299 212.696C358.354 227.268 319.134 255.977 238.362 258.724Z" stroke="#F5F5F5" stroke-miterlimit="10"/>
<path d="M229.077 254.486C159.218 254.627 150.358 413.804 189.033 472.677C236.513 544.951 369.092 459.464 415.119 475.508C436.038 482.804 387.8 392.626 384.046 309.564C380.245 225.436 397.816 171.339 371.468 200.002C354.471 218.471 316.535 254.316 229.077 254.486Z" stroke="#F5F5F5" stroke-miterlimit="10"/>
<path d="M219.792 250.258C144.884 248.37 136.977 419.835 178.963 482.275C230.751 559.344 369.748 463.051 420.196 482.908C442.595 491.722 398.001 393.985 392.387 304.412C386.728 214.074 398.861 152.926 369.628 187.289C350.577 209.704 313.918 252.674 219.792 250.258Z" stroke="#F5F5F5" stroke-miterlimit="10"/>
<path d="M210.507 246.021C130.623 242.047 123.576 425.866 168.891 491.883C225.045 573.746 370.497 466.628 425.273 490.326C449.179 500.651 408.22 395.354 400.738 299.268C393.219 202.711 399.869 134.561 367.797 174.596C346.674 200.955 311.292 251.041 210.507 246.021Z" stroke="#F5F5F5" stroke-miterlimit="10"/>
<path d="M201.221 241.783C116.325 235.761 110.23 431.896 158.819 501.49C219.32 588.138 371.208 470.176 430.349 497.715C455.772 509.569 418.429 396.731 409.079 294.096C399.711 191.328 400.894 116.185 365.965 161.873C342.78 192.216 308.664 249.408 201.221 241.783Z" stroke="#F5F5F5" stroke-miterlimit="10"/>
<path d="M191.938 237.555C102.02 229.485 96.8596 437.965 148.75 511.089C213.597 602.531 371.996 473.715 435.437 505.152C462.404 518.516 428.659 398.081 417.432 288.971C406.205 179.862 401.923 97.8666 364.135 149.17C338.879 183.486 306.04 247.795 191.938 237.555Z" stroke="#F5F5F5" stroke-miterlimit="10"/>
<path d="M182.653 233.317C87.713 223.209 83.4867 443.948 138.669 520.696C207.872 616.961 372.819 477.282 440.505 512.57C469.035 527.453 438.877 399.44 425.773 283.828C412.705 168.621 402.958 79.5479 362.295 136.495C334.976 174.765 303.413 246.171 182.653 233.317Z" stroke="#F5F5F5" stroke-miterlimit="10"/>
<path d="M173.366 229.08C73.405 216.933 70.2606 449.866 128.625 530.304C202.359 631.174 373.696 480.756 445.608 519.979C475.701 536.391 449.132 400.799 434.141 278.684C419.233 157.258 404.02 61.2199 360.49 123.792C331.072 166.045 300.766 244.567 173.366 229.08Z" stroke="#F5F5F5" stroke-miterlimit="10"/>
<path d="M164.082 224.851C59.0994 210.667 56.8799 455.897 118.527 539.893C196.589 645.595 374.52 484.21 450.659 527.378C482.333 545.31 459.333 402.139 442.456 273.503C425.717 145.848 405.029 42.8729 358.632 111.051C327.171 157.324 298.132 242.953 164.082 224.851Z" stroke="#F5F5F5" stroke-miterlimit="10"/>
<path d="M154.797 220.614C44.7466 204.4 43.4888 461.937 108.456 549.51C190.846 659.931 375.39 487.777 455.736 534.806C489.029 554.276 469.784 403.489 450.798 268.388C432.44 134.485 406.065 24.5919 356.801 98.395C323.268 148.613 295.487 241.348 154.797 220.614Z" stroke="#F5F5F5" stroke-miterlimit="10"/>
<path d="M145.513 216.376C30.4409 198.341 30.0987 467.977 98.3858 559.117C185.104 674.39 376.278 491.288 460.823 542.224C495.66 563.213 479.967 404.848 459.149 263.244C438.906 123.122 407.102 6.2924 354.962 85.6921C319.366 139.902 292.806 240.009 145.513 216.376Z" stroke="#F5F5F5" stroke-miterlimit="10"/>
<path d="M136.226 212.148C16.1322 192.027 16.7241 474.008 88.3126 568.725C179.35 688.792 377.173 494.789 465.898 549.642C502.326 572.16 490.156 406.188 467.489 258.1C445.368 111.759 408.145 -12.0171 353.128 72.9981C315.434 131.238 290.168 238.347 136.226 212.148Z" stroke="#F5F5F5" stroke-miterlimit="10"/>
<path d="M126.943 207.911C1.82686 185.713 3.32503 480.048 78.2429 578.323C173.608 703.166 378.09 498.301 470.977 557.051C509.004 581.107 500.395 407.576 475.832 252.985C451.787 100.424 409.034 -30.3922 351.299 60.3234C311.449 122.414 287.534 236.677 126.943 207.911Z" stroke="#F5F5F5" stroke-miterlimit="10"/>
<path d="M117.658 203.673C-12.4791 179.371 -10.0931 486.097 68.1725 587.931C167.866 717.596 379.006 501.811 476.055 564.431C515.691 590.026 510.54 408.897 484.184 247.776C458.298 89.0234 410.153 -48.6638 349.468 47.5917C307.603 113.75 284.917 235.053 117.658 203.673Z" stroke="#F5F5F5" stroke-miterlimit="10"/>
<path d="M347.627 34.8979C303.755 105.077 282.253 233.345 108.373 199.445C-26.7958 173.085 -23.4573 492.119 58.0914 597.538C162.122 732.007 379.921 505.322 481.131 571.877C562.975 625.71 475.924 -170.345 347.627 34.8979Z" stroke="#F5F5F5" stroke-miterlimit="10"/>
</svg>
