<svg width="514" height="514" viewBox="0 0 514 514" fill="none" xmlns="http://www.w3.org/2000/svg">
<path d="M162.008 355.528C151.266 360.206 147.185 371.674 154.207 378.22C168.653 391.692 228.124 385.037 230.922 375.906C233.679 366.909 184.425 345.763 162.008 355.528Z" stroke="#F5F5F5" stroke-miterlimit="10"/>
<path d="M188.627 325.564C213.166 316.624 254.369 380.273 237.361 395.299C226.904 404.539 201.591 403.385 180.948 400.348C161.569 397.498 133.879 385.843 127.047 366.487C123.43 356.212 125.601 341.572 133.262 336.445C139.191 332.478 147.196 334.263 148.962 333.603C157.38 337.235 158.615 338.646 165.322 339.498C174.088 340.612 181.879 328.022 188.627 325.564Z" stroke="#F5F5F5" stroke-miterlimit="10"/>
<path d="M213.525 294.258C242.024 298.991 272.993 391.957 242.078 413.352C222.39 426.978 188.066 420.961 164.141 413.758C142.164 407.141 105.569 385.059 98.1657 353.413C93.8618 335.025 99.0915 309.158 114.076 301.676C126.02 295.713 141.41 300.84 144.119 301.235C160.136 310.196 161.431 314.755 173.357 317.825C189.147 321.883 201.614 292.271 213.525 294.258Z" stroke="#F5F5F5" stroke-miterlimit="10"/>
<path d="M236.617 263.161C268.084 271.885 289.814 403.774 244.991 431.61C216.063 449.573 172.717 438.798 145.529 427.373C120.933 417.04 75.588 384.526 67.4796 340.544C62.588 314.02 70.751 276.982 93.0817 267.112C111.025 259.178 133.941 267.32 137.467 269.073C162.12 281.33 162.432 291.07 179.596 296.357C202.395 303.398 220.138 258.602 236.617 263.161Z" stroke="#F5F5F5" stroke-miterlimit="10"/>
<path d="M258.321 233.479C293.168 246.063 305.188 416.873 246.515 451.285C208.308 473.494 155.96 458.078 125.531 442.407C98.2879 428.381 44.2491 385.438 35.3943 329.09C29.9515 294.453 41.0115 246.231 70.6912 233.957C94.6446 224.06 124.904 235.669 129.421 238.316C161.2 256.942 162.021 268.84 184.417 276.306C214.229 286.33 237.463 225.948 258.321 233.479Z" stroke="#F5F5F5" stroke-miterlimit="10"/>
<path d="M47.3255 201.197C77.2783 189.34 114.864 204.399 120.4 207.957C159.218 232.911 160.654 246.915 188.274 256.631C225.105 269.586 253.965 193.463 279.032 204.172C317.535 220.621 319.696 430.569 247.045 471.336C199.641 497.936 138.188 477.753 104.537 457.815C74.6518 440.112 11.9585 386.738 2.33654 318.014C-3.64466 275.268 10.2915 215.856 47.3255 201.197Z" stroke="#F5F5F5" stroke-miterlimit="10"/>
<path d="M371.444 179.564C359.645 179.462 345.496 158.183 356.077 154.63C362.189 152.575 378.369 155.825 384.725 161.609C393.676 169.749 379.563 179.638 371.444 179.564Z" stroke="#F5F5F5" stroke-miterlimit="10"/>
<path d="M339.379 157.61C340.534 154.754 345.941 153.486 350.874 150.009C360.881 142.951 362.316 139.598 369.423 135.342C372.195 133.679 375.925 131.494 379.565 132.494C385.141 134.028 386.532 140.663 393.608 152.351C402.783 167.537 406.257 171.463 403.636 179.51C403.025 181.382 402.234 187.441 397.816 191.138C391.697 196.249 384.525 192.301 375.558 195.684C364.789 199.74 359.45 206.96 354.777 203.769C351.485 201.522 351.363 195.367 348.897 184.651C347.02 176.487 345.839 171.13 343.556 166.761C340.818 161.558 338.095 160.785 339.379 157.61Z" stroke="#F5F5F5" stroke-miterlimit="10"/>
<path d="M321.345 163.562C321.545 158.5 329.191 156.05 335.492 148.735C348.414 133.73 342.427 123.008 352.785 112.046C357.18 107.392 364.077 102.885 370.989 103.758C380.798 104.999 384.093 115.537 399.194 136.902C418.937 164.835 427.347 170.306 425.504 185.192C425.126 188.226 424.76 199.875 417.044 206.887C406.754 216.237 394.42 207.73 378.309 214.758C360.309 222.6 353.581 239.365 347.511 235.896C343.296 233.487 344.911 223.784 341.671 204.861C339.377 191.411 337.96 183.55 333.375 177.112C327.589 168.991 321.129 169.059 321.345 163.562Z" stroke="#F5F5F5" stroke-miterlimit="10"/>
<path d="M303.292 169.448C302.512 162.193 312.412 158.546 320.091 147.394C335.903 124.436 322.271 106.492 336.129 88.6827C342.061 81.0626 352.234 74.2455 362.394 74.9567C376.476 75.941 381.68 90.2997 404.783 121.389C435.157 162.01 448.237 169.162 447.379 190.808C447.21 195.029 447.288 212.238 436.28 222.578C421.816 236.161 404.294 223.079 381.071 233.773C355.82 245.401 347.727 271.704 340.243 267.967C335.107 265.381 338.397 252.142 334.441 225.012C331.711 206.275 330.064 195.949 323.189 187.404C314.326 176.393 304.127 177.263 303.292 169.448Z" stroke="#F5F5F5" stroke-miterlimit="10"/>
<path d="M285.198 175.319C283.448 165.879 295.574 161.02 304.65 146.039C323.316 115.115 302.01 90.0185 319.434 65.3058C326.881 54.7328 340.357 45.6038 353.76 46.1392C372.125 46.8747 379.154 65.103 410.319 105.862C451.228 159.241 469.031 168.056 469.19 196.411C469.221 201.819 469.736 224.571 455.449 238.254C436.792 256.052 414.116 238.403 383.765 252.775C351.259 268.172 341.801 304.036 332.933 300.024C326.874 297.271 331.841 280.484 327.17 245.149C323.995 221.124 322.13 208.344 312.963 197.682C301.017 183.794 287.08 185.47 285.198 175.319Z" stroke="#F5F5F5" stroke-miterlimit="10"/>
<path d="M267.069 181.187C270 193.68 287.668 191.192 302.697 207.957C314.157 220.74 316.24 235.966 319.86 265.284C325.235 308.82 318.599 329.157 325.581 332.075C335.845 336.367 346.666 290.938 386.433 271.774C423.896 253.721 451.774 275.976 474.591 253.927C492.181 236.926 491.203 208.631 490.974 202.008C489.762 166.953 467.265 156.466 415.819 90.3295C376.59 39.9009 367.743 17.8085 345.085 17.319C328.442 16.9594 311.655 28.4058 302.697 41.9263C281.718 73.5641 310.74 105.827 289.174 144.682C278.722 163.51 264.342 169.565 267.069 181.187Z" stroke="#F5F5F5" stroke-miterlimit="10"/>
<path d="M417.002 382.263C413.923 380.641 407.458 383.767 406.886 388.637C406.239 394.161 413.554 398.731 416.768 397.311C420.57 395.629 421.088 384.41 417.002 382.263Z" stroke="#F5F5F5" stroke-miterlimit="10"/>
<path d="M425.678 411.616C430.926 406.513 433.219 397.149 435.843 381.098C438.444 365.181 438.035 353.786 435.75 352.959C434.504 352.513 430.975 356.004 427.948 358.562C422.281 363.337 412.582 362.807 410.095 363.324C400.994 365.216 398.32 368.732 394.516 375.465C392.755 378.575 388.649 385.47 386.842 393.582C384.085 405.867 371.73 409.653 373.236 414.577C374.502 418.687 386.743 419.685 394.68 419.801C406.054 419.969 417.564 419.496 425.678 411.616Z" stroke="#F5F5F5" stroke-miterlimit="10"/>
<path d="M434.774 425.334C443.4 416.216 446.794 400.913 452.021 372.296C457.331 343.54 457.297 323.817 454.681 323.081C452.718 322.519 446.36 329.628 440.956 334.709C430.77 344.327 412.535 342.745 408.777 343.362C391.64 346.115 387.416 352.71 380.775 365.176C378.008 370.368 370.417 383.023 366.958 397.968C361.635 420.864 336.397 426.859 338.485 435.347C340.23 442.416 363.635 443.5 378.361 442.919C399.155 442.078 420.198 440.747 434.774 425.334Z" stroke="#F5F5F5" stroke-miterlimit="10"/>
<path d="M443.822 438.962C455.833 425.831 460.288 404.58 468.147 363.405C476.128 321.802 476.5 293.796 473.561 293.098C470.87 292.449 461.687 303.158 453.922 310.775C439.242 325.261 412.449 322.597 407.417 323.295C382.249 326.789 376.452 336.559 366.992 354.784C363.216 362.055 352.145 380.473 347.03 402.244C339.148 435.753 301.024 443.952 303.69 456.006C305.916 466.033 340.49 467.247 362.001 465.92C392.209 464.148 422.817 461.926 443.822 438.962Z" stroke="#F5F5F5" stroke-miterlimit="10"/>
<path d="M452.84 452.583C468.246 435.439 473.756 408.236 484.247 354.503C494.909 300.059 495.689 263.778 492.417 263.105C488.995 262.393 476.983 276.658 466.862 286.817C447.66 306.138 412.34 302.419 406.033 303.217C372.835 307.406 365.421 320.375 353.183 344.379C348.383 353.724 333.848 377.91 327.082 406.508C316.633 450.628 265.624 461.033 268.874 476.655C271.576 489.634 317.319 490.93 345.618 488.912C385.227 486.135 425.418 483.104 452.84 452.583Z" stroke="#F5F5F5" stroke-miterlimit="10"/>
<path d="M404.637 283.131C363.411 287.998 354.447 304.223 339.364 333.968C333.565 345.404 315.538 375.341 307.117 410.764C294.115 465.5 230.212 478.11 234.043 497.295C237.226 513.249 294.136 514.601 329.222 511.897C378.247 508.111 428.013 504.277 461.848 466.198C480.648 445.039 487.211 411.892 500.336 345.596C513.659 278.307 514.847 233.76 511.258 233.105C507.097 232.348 492.274 250.141 479.792 262.85C456.065 287.003 412.22 282.236 404.637 283.131Z" stroke="#F5F5F5" stroke-miterlimit="10"/>
<path d="M69.43 153.064C74.1109 171.723 107.71 162.959 147.706 204.983C162.037 220.042 171.646 235.793 190.614 238.243C192.528 238.489 211.53 240.65 224.941 227.968C241.813 212.014 231.515 189.881 251.206 159.013C258.459 147.643 259.666 150.944 264.989 141.978C287.707 103.701 253.058 64.8434 273.051 25.9721C282.254 8.07916 295.935 3.97165 294.635 1.63531C289.023 -8.38875 56.781 102.787 69.43 153.064Z" stroke="#F5F5F5" stroke-miterlimit="10"/>
<path d="M195.815 212.736C196.965 212.573 209.494 213.547 218.089 204.58C228.956 193.258 221.209 177.669 233.661 156.623C238.243 148.873 238.88 150.974 242.141 144.844C256.054 118.685 231.083 92.3684 243.311 66.7606C248.97 54.9059 257.903 52.1883 256.574 51.0309C250.564 45.7525 97.2711 123.73 109.312 157.661C113.826 170.387 138.471 165.871 166.671 193.28C176.925 203.239 183.868 214.42 195.815 212.736Z" stroke="#F5F5F5" stroke-miterlimit="10"/>
<path d="M201.016 187.225C201.344 186.368 207.471 186.387 211.236 181.192C216.125 174.454 210.919 165.476 216.115 154.235C218.021 150.109 218.099 150.99 219.295 147.71C224.431 133.603 209.088 119.91 213.574 107.546C215.673 101.727 219.574 100.735 218.533 100.424C210.929 101.546 137.917 144.749 149.18 162.258C153.578 169.1 169.319 168.772 185.624 181.576C191.821 186.444 195.878 190.008 201.016 187.225Z" stroke="#F5F5F5" stroke-miterlimit="10"/>
<path d="M206.217 161.717C202.181 149.454 186.292 145.285 180.472 149.819C171.89 156.515 179.211 165.233 189.054 166.855C196.411 168.059 210.836 175.752 206.217 161.717Z" stroke="#F5F5F5" stroke-miterlimit="10"/>
</svg>
